<svg xmlns="http://www.w3.org/2000/svg" viewBox="0 0 3449.76 2670.84"><defs><style>.cls-1{fill:#161616;}.cls-2{fill:#f7f7f7;}.cls-3{fill:#ddd;}.cls-4{fill:#fcfcfc;}.cls-5{fill:#0f0f0f;}.cls-12,.cls-6{fill:#fff;}.cls-7{fill:#7f7f7f;}.cls-8{fill:#999;}.cls-9{fill:#afafaf;}.cls-10{fill:#3f3f3f;}.cls-11{fill:#5e5e5e;}.cls-12{stroke:#000;stroke-miterlimit:10;}.cls-13{fill:#777;}</style></defs><title>dlLogov1</title><g id="v3"><path class="cls-1" d="M192.16,980.33a6.22,6.22,0,0,1-6.23-6.22v-266a6.23,6.23,0,0,1,6.23-6.23h266a6.23,6.23,0,0,1,6.23,6.23v266a6.22,6.22,0,0,1-6.23,6.22" transform="translate(379.11 -9.88)"/><path class="cls-2" d="M464.38,940.62H255.78a3.86,3.86,0,0,1-3.65-3.84v-5.3a3.77,3.77,0,0,1,1.05-2.63,1.21,1.21,0,0,1,.16-.16,3.81,3.81,0,0,1,2.64-1.06h208.4Z" transform="translate(379.11 -9.88)"/><path class="cls-2" d="M464.41,914.62H255.75a3.86,3.86,0,0,1-3.65-3.84v-5.3a3.77,3.77,0,0,1,1.05-2.63,1.21,1.21,0,0,1,.16-.16,3.81,3.81,0,0,1,2.64-1.06H464.41Z" transform="translate(379.11 -9.88)"/><path class="cls-3" d="M256.17,889h-.42a3.84,3.84,0,0,1-3.65-3.84,3.77,3.77,0,0,1,1.05-2.63l.16-.16,32.26-32.43a23.92,23.92,0,0,1,33.87-.07l32.3,32.3a3.85,3.85,0,0,1-2.73,6.57Z" transform="translate(379.11 -9.88)"/><path class="cls-1" d="M-372.88,970.51a6.22,6.22,0,0,1-6.23-6.22v-266a6.23,6.23,0,0,1,6.23-6.23h266a6.23,6.23,0,0,1,6.23,6.23v266a6.22,6.22,0,0,1-6.23,6.22" transform="translate(379.11 -9.88)"/><path class="cls-4" d="M-100.66,930.8h-208.6a3.84,3.84,0,0,1-1-.2,3.84,3.84,0,0,1-2.62-3.64v-5.3a3.77,3.77,0,0,1,1.05-2.63l.16-.16a3.81,3.81,0,0,1,2.64-1.06h208.4Z" transform="translate(379.11 -9.88)"/><path class="cls-4" d="M-100.63,904.8H-309.29a3.84,3.84,0,0,1-1-.2,3.84,3.84,0,0,1-2.62-3.64v-5.3a3.77,3.77,0,0,1,1.05-2.63,1.21,1.21,0,0,1,.16-.16,3.81,3.81,0,0,1,2.64-1.06h208.46Z" transform="translate(379.11 -9.88)"/><path class="cls-4" d="M-308.87,879.15h-.42a3.84,3.84,0,0,1-3.65-3.84,3.77,3.77,0,0,1,1.05-2.63l.16-.16,32.26-32.43A23.92,23.92,0,0,1-245.6,840l32.3,32.3a3.83,3.83,0,0,1,1.13,2.72,3.85,3.85,0,0,1-3.86,3.85Z" transform="translate(379.11 -9.88)"/><path class="cls-5" d="M808,980.34a6.22,6.22,0,0,0,6.23-6.22v-33.5H605.66a3.86,3.86,0,0,1-3.65-3.84v-5.3a3.77,3.77,0,0,1,1-2.63l.16-.16a3.81,3.81,0,0,1,2.64-1.06H814.23v-13H605.63a3.86,3.86,0,0,1-3.65-3.84v-5.3a3.77,3.77,0,0,1,1-2.63l.16-.16a3.81,3.81,0,0,1,2.64-1.06h208.4V708.15a6.23,6.23,0,0,0-6.23-6.23H542a6.23,6.23,0,0,0-6.23,6.23v266a6.22,6.22,0,0,0,6.23,6.22m61-97.84a1.21,1.21,0,0,1,.16-.16l32.26-32.43a23.92,23.92,0,0,1,33.87-.07l32.3,32.3a3.85,3.85,0,0,1-2.73,6.57l-92.84.26h-.42a3.84,3.84,0,0,1-3.65-3.84A3.77,3.77,0,0,1,603,882.49Z" transform="translate(379.11 -9.88)"/></g><g id="v2"><path class="cls-5" d="M192.18,666.92A6.22,6.22,0,0,1,186,660.7v-266a6.23,6.23,0,0,1,6.23-6.23h266a6.23,6.23,0,0,1,6.23,6.23v266a6.22,6.22,0,0,1-6.23,6.22" transform="translate(379.11 -9.88)"/><path class="cls-6" d="M464.4,627.21H255.8a3.86,3.86,0,0,1-3.65-3.84v-5.3a3.77,3.77,0,0,1,1-2.63l.16-.16a3.81,3.81,0,0,1,2.64-1.06H464.4Z" transform="translate(379.11 -9.88)"/><path class="cls-6" d="M464.43,601.21H255.77a3.86,3.86,0,0,1-3.65-3.84v-5.3a3.77,3.77,0,0,1,1-2.63l.16-.16a3.81,3.81,0,0,1,2.64-1.06H464.43Z" transform="translate(379.11 -9.88)"/><path class="cls-6" d="M258.47,560.9a4.34,4.34,0,0,1-4.15-4.34,4.27,4.27,0,0,1,1.19-3,.94.94,0,0,1,.2-.2L287.93,521a24.43,24.43,0,0,1,34.58-.08l32.3,32.3a4.35,4.35,0,0,1-3.08,7.43l-92.84.26Z" transform="translate(379.11 -9.88)"/><path d="M305.27,514.28a23.76,23.76,0,0,1,16.89,7l32.3,32.3a3.85,3.85,0,0,1-2.73,6.57l-92.84.26h-.42a3.84,3.84,0,0,1-3.65-3.84,3.77,3.77,0,0,1,1.05-2.63l.16-.16,32.26-32.43a23.89,23.89,0,0,1,17-7.06m0-1h0a24.81,24.81,0,0,0-17.69,7.35L255.35,553l-.23.23a4.78,4.78,0,0,0-1.3,3.3,4.84,4.84,0,0,0,4.6,4.84h.47l92.84-.26a4.85,4.85,0,0,0,3.44-8.28l-32.3-32.3a24.72,24.72,0,0,0-17.6-7.28Z" transform="translate(379.11 -9.88)"/><path class="cls-5" d="M192.13,1293.75a6.22,6.22,0,0,1-6.23-6.22v-266a6.23,6.23,0,0,1,6.23-6.23h266a6.23,6.23,0,0,1,6.23,6.23v266a6.22,6.22,0,0,1-6.23,6.22" transform="translate(379.11 -9.88)"/><path class="cls-6" d="M464.35,1254H255.75a3.86,3.86,0,0,1-3.65-3.84v-5.3a3.77,3.77,0,0,1,1.05-2.63l.16-.16A3.81,3.81,0,0,1,256,1241h208.4Z" transform="translate(379.11 -9.88)"/><path class="cls-6" d="M464.38,1228H255.72a3.86,3.86,0,0,1-3.65-3.84v-5.3a3.77,3.77,0,0,1,1.05-2.63l.16-.16a3.81,3.81,0,0,1,2.64-1.06H464.38Z" transform="translate(379.11 -9.88)"/><path class="cls-6" d="M278.43,1198.73a4.35,4.35,0,0,1-3-7.32,1.37,1.37,0,0,1,.21-.2l32.22-32.39a24.42,24.42,0,0,1,34.58-.07l32.3,32.3a4.34,4.34,0,0,1-3.09,7.42l-92.83.26Z" transform="translate(379.11 -9.88)"/><path d="M325.23,1152.11a23.8,23.8,0,0,1,16.88,7l32.31,32.3a3.85,3.85,0,0,1-2.74,6.57l-92.84.26h-.41a3.84,3.84,0,0,1-2.61-6.47l.16-.16,32.26-32.43a23.9,23.9,0,0,1,17-7.06m0-1h0a24.79,24.79,0,0,0-17.69,7.35l-32.24,32.41-.22.22a4.79,4.79,0,0,0-1.31,3.3,4.85,4.85,0,0,0,4.61,4.84h.46l92.85-.26a4.84,4.84,0,0,0,3.43-8.28l-32.3-32.3a24.69,24.69,0,0,0-17.59-7.28Z" transform="translate(379.11 -9.88)"/><path class="cls-5" d="M603,1217l.16-.16a3.81,3.81,0,0,1,2.64-1.06h208.4V1022.29a6.23,6.23,0,0,0-6.23-6.23H542a6.23,6.23,0,0,0-6.23,6.23v266a6.22,6.22,0,0,0,6.23,6.22H808a6.22,6.22,0,0,0,6.23-6.22v-33.5H605.62a3.86,3.86,0,0,1-3.65-3.84v-5.3a3.77,3.77,0,0,1,1-2.63l.16-.16a3.81,3.81,0,0,1,2.64-1.06H814.19v-13H605.59a3.86,3.86,0,0,1-3.65-3.84v-5.3A3.77,3.77,0,0,1,603,1217Zm22.7-35.5a1.21,1.21,0,0,1,.16-.16l32.26-32.43a23.92,23.92,0,0,1,33.87-.07l32.3,32.3a3.85,3.85,0,0,1-2.73,6.57l-92.84.26h-.42a3.84,3.84,0,0,1-3.65-3.84A3.77,3.77,0,0,1,625.69,1181.48Z" transform="translate(379.11 -9.88)"/><path class="cls-5" d="M808,666.2a6.22,6.22,0,0,0,6.23-6.22v-33.5H605.66a3.86,3.86,0,0,1-3.65-3.84v-5.3a3.77,3.77,0,0,1,1-2.63l.16-.16a3.81,3.81,0,0,1,2.64-1.06H814.23v-13H605.63a3.86,3.86,0,0,1-3.65-3.84v-5.3a3.77,3.77,0,0,1,1-2.63l.16-.16a3.81,3.81,0,0,1,2.64-1.06h208.4V394a6.23,6.23,0,0,0-6.23-6.23H542a6.23,6.23,0,0,0-6.23,6.23V660a6.22,6.22,0,0,0,6.23,6.22m63.69-113a1.21,1.21,0,0,1,.16-.16l32.26-32.43a23.92,23.92,0,0,1,33.87-.07l32.3,32.3a3.85,3.85,0,0,1-2.73,6.57l-92.84.26h-.42a3.84,3.84,0,0,1-3.65-3.84A3.77,3.77,0,0,1,605.73,553.2Z" transform="translate(379.11 -9.88)"/><rect class="cls-5" x="395.84" width="33.46" height="33.46"/><rect class="cls-2" x="754.08" width="33.46" height="33.46"/><rect class="cls-4" x="799.47" width="33.46" height="33.46"/><rect class="cls-7" x="591.69" width="33.46" height="33.46"/><rect class="cls-8" x="632.29" width="33.46" height="33.46"/><rect class="cls-9" x="672.89" width="33.46" height="33.46"/><rect class="cls-3" x="713.48" width="33.46" height="33.46"/><rect class="cls-10" x="493.76" width="33.46" height="33.46"/><rect class="cls-11" x="542.73" width="33.46" height="33.46"/><rect class="cls-1" x="444.8" width="33.46" height="33.46"/></g><g id="v1"><rect class="cls-1" x="565.06" y="65.21" width="278.42" height="278.42"/><path class="cls-2" d="M464.37,313.29H254.53a2.71,2.71,0,0,1-2.41-2.93v-8.13a2.72,2.72,0,0,1,2.41-2.94H464.37Z" transform="translate(379.11 -9.88)"/><path class="cls-2" d="M464.37,286.29H254.53a2.71,2.71,0,0,1-2.41-2.93v-8.13a2.71,2.71,0,0,1,2.41-2.94H464.37Z" transform="translate(379.11 -9.88)"/><path class="cls-2" d="M357.17,255.68l-35-35a23.92,23.92,0,0,0-33.87.07l-35,35.22a2.26,2.26,0,0,0,1.6,3.85l100.73-.28A2.26,2.26,0,0,0,357.17,255.68Z" transform="translate(379.11 -9.88)"/><path class="cls-5" d="M604.39,272.29H811.07a3.16,3.16,0,0,0,3.16-3.15V78.25a3.16,3.16,0,0,0-3.16-3.16H539a3.15,3.15,0,0,0-3.15,3.16V350.36a3.15,3.15,0,0,0,3.15,3.15H811.07a3.16,3.16,0,0,0,3.16-3.15V316.45a3.16,3.16,0,0,0-3.16-3.16H604.39a2.71,2.71,0,0,1-2.4-2.93v-8.13a2.72,2.72,0,0,1,2.4-2.94H814a.27.27,0,0,0,.27-.26V286.55a.27.27,0,0,0-.27-.26H604.39a2.71,2.71,0,0,1-2.4-2.93v-8.13A2.71,2.71,0,0,1,604.39,272.29Zm.49-18.1,33.28-33.45a23.91,23.91,0,0,1,33.86-.07l33.25,33.24a3.3,3.3,0,0,1-2.32,5.63l-95.73.26A3.29,3.29,0,0,1,604.88,254.19Z" transform="translate(379.11 -9.88)"/></g><g id="GRLogo_bg" data-name="GRLogo bg"><path d="M3060.79,2408.53v272.19h0v-6.23a6.22,6.22,0,0,1-6.22,6.23h-266a6.23,6.23,0,0,1-6.23-6.23v-266a6.23,6.23,0,0,1,6.23-6.23h266A6.22,6.22,0,0,1,3060.79,2408.53Z" transform="translate(379.11 -9.88)"/></g><g id="GRLogo_pieces" data-name="GRLogo pieces"><path class="cls-6" d="M3021.07,2402.27v208.4a1.27,1.27,0,0,1,0,.2,3.86,3.86,0,0,1-3.84,3.65h-5.3a3.77,3.77,0,0,1-2.63-1.05,1.21,1.21,0,0,1-.16-.16,3.81,3.81,0,0,1-1.06-2.64v-208.4Z" transform="translate(379.11 -9.88)"/><path class="cls-6" d="M2995.07,2402.24V2610.7a1.27,1.27,0,0,1,0,.2,3.86,3.86,0,0,1-3.84,3.65h-5.3a3.77,3.77,0,0,1-2.63-1.05,1.21,1.21,0,0,1-.16-.16,3.81,3.81,0,0,1-1.06-2.64V2402.24Z" transform="translate(379.11 -9.88)"/><path class="cls-6" d="M2965.58,2615.05a4.31,4.31,0,0,1-3-1.18,1.88,1.88,0,0,1-.19-.2l-32.4-32.23a24.43,24.43,0,0,1-.08-34.58l32.3-32.3a4.35,4.35,0,0,1,7.43,3.08l.26,93.26A4.34,4.34,0,0,1,2965.58,2615.05Z" transform="translate(379.11 -9.88)"/><path d="M2965.31,2513.78a3.85,3.85,0,0,1,3.85,3.86l.26,92.84v.42a3.84,3.84,0,0,1-3.84,3.65,3.77,3.77,0,0,1-2.63-1.05l-.16-.16-32.43-32.26a23.92,23.92,0,0,1-.07-33.87l32.3-32.3a3.83,3.83,0,0,1,2.72-1.13m0-1a4.83,4.83,0,0,0-3.43,1.43l-32.3,32.3a24.93,24.93,0,0,0,.07,35.28l32.4,32.23a1.67,1.67,0,0,0,.23.23,4.78,4.78,0,0,0,3.3,1.3,4.84,4.84,0,0,0,4.84-4.6v-.47l-.26-92.84a4.86,4.86,0,0,0-4.85-4.86Z" transform="translate(379.11 -9.88)"/></g><g id="Golden_ratio" data-name="Golden ratio"><rect class="cls-12" x="3250.38" y="2225.68" width="26.09" height="26.57"/><rect class="cls-12" x="3237.46" y="2225.62" width="12.91" height="13.15"/><path class="cls-13" d="M2981.82,2511.33V2524h-12.41v-12.66h12.41m.25-.25h-12.91v13.16h12.91v-13.16Z" transform="translate(379.11 -9.88)"/><rect class="cls-12" x="3237.46" y="2238.77" width="12.91" height="13.15"/><rect class="cls-12" x="3237.16" y="2185.9" width="39.72" height="39.72"/><path class="cls-13" d="M3054.57,2402.55a6,6,0,0,1,6,6v33.24h-39.22v-39.22h33.25m0-.25h-33.5V2442h39.72v-33.49a6.22,6.22,0,0,0-6.22-6.23Z" transform="translate(379.11 -9.88)"/><rect class="cls-12" x="3170.81" y="2185.9" width="66.35" height="66.35"/><path class="cls-13" d="M3060.53,2614.8v59.69a6,6,0,0,1-6,6h-59.71V2614.8h65.68m.25-.25H2994.6v66.17h60a6.22,6.22,0,0,0,6.22-6.23v-59.94Z" transform="translate(379.11 -9.88)"/><rect class="cls-12" x="3170.81" y="2252.25" width="106.08" height="106.08"/><rect class="cls-12" x="3276.9" y="2185.97" width="172.37" height="172.37"/><path class="cls-13" d="M2981.82,2402.55v171.87H2810V2402.55h171.86m.25-.25H2809.71v172.37h172.36V2402.3Z" transform="translate(379.11 -9.88)"/><rect class="cls-12" x="3170.84" y="1907.02" width="278.42" height="278.42"/><rect class="cls-12" x="2719.5" y="1907.02" width="451.31" height="451.31"/><path class="cls-13" d="M3007.82,2402.55v12.74h-12.5v-12.74h12.5m.25-.25h-13v13.24h13V2402.3Z" transform="translate(379.11 -9.88)"/><path class="cls-13" d="M2788.6,2402.55a6,6,0,1,1-6,6,6,6,0,0,1,6-6m0-.25a6.23,6.23,0,1,0,6.22,6.23,6.23,6.23,0,0,0-6.22-6.23Z" transform="translate(379.11 -9.88)"/><path class="cls-13" d="M2788.6,2668.51a6,6,0,1,1-6,6,6,6,0,0,1,6-6m0-.25a6.23,6.23,0,1,0,6.22,6.23,6.23,6.23,0,0,0-6.22-6.23Z" transform="translate(379.11 -9.88)"/><path class="cls-13" d="M3054.56,2668.51a6,6,0,1,1-6,6,6,6,0,0,1,6-6m0-.25a6.23,6.23,0,1,0,6.22,6.23,6.23,6.23,0,0,0-6.22-6.23Z" transform="translate(379.11 -9.88)"/><path class="cls-13" d="M2950.42,2604.39a3.62,3.62,0,0,1,3.6,3.43v.18a1.28,1.28,0,0,1,0,.19,3.58,3.58,0,0,1-3.59,3.41,3.54,3.54,0,0,1-2.47-1,.92.92,0,0,1-.14-.14,3.55,3.55,0,0,1-1-2.47,3.62,3.62,0,0,1,3.6-3.61m0-.25a3.85,3.85,0,0,0-2.79,6.5,1.21,1.21,0,0,0,.16.16,3.77,3.77,0,0,0,2.63,1,3.84,3.84,0,0,0,3.84-3.65,1.27,1.27,0,0,0,0-.2,1.62,1.62,0,0,0,0-.22,3.85,3.85,0,0,0-3.84-3.64Z" transform="translate(379.11 -9.88)"/><path class="cls-13" d="M3017.22,2607.06a3.61,3.61,0,0,1,3.41,2.45,4.26,4.26,0,0,1,.19,1v.18a1.28,1.28,0,0,1,0,.19,3.79,3.79,0,0,1-.18,1,3.59,3.59,0,0,1-3.41,2.45,3.54,3.54,0,0,1-2.47-1,.92.92,0,0,1-.14-.14,3.55,3.55,0,0,1-1-2.47,3.62,3.62,0,0,1,3.6-3.61m0-.25a3.85,3.85,0,0,0-2.79,6.5,1.21,1.21,0,0,0,.16.16,3.77,3.77,0,0,0,2.63,1.05,3.86,3.86,0,0,0,3.84-3.65,1.27,1.27,0,0,0,0-.2,1.62,1.62,0,0,0,0-.22,3.85,3.85,0,0,0-3.84-3.64Z" transform="translate(379.11 -9.88)"/></g></svg>